{"title":"Pokemon S17E08 Grooming Furfrou HDTD XViD-Insane098","uid":9768032,"size":174788698,"categoryP":"video","categoryS":"tv_shows","magnet":"?xt=urn:btih:e3b866eaff36f70cae3a3e55ae61440f036da097&amp;dn=Pokemon+S17E08+Grooming+Furfrou+HDTD+XViD-Insane098&amp;tr=udp%3A%2F%2Ftracker.openbittorrent.com%3A80&amp;tr=udp%3A%2F%2Fopen.demonii.com%3A1337&amp;tr=udp%3A%2F%2Ftracker.coppersurfer.tk%3A6969&amp;tr=udp%3A%2F%2Fexodus.desync.com%3A6969","seeders":1,"leechers":0,"uploader":"098765432","files":-1,"time":1394909848,"description":"Plot:\nAsh, Serena, Bonnie and Clement encounter Jessie who is trying to be a groomer with a Furfrou.\n\n\n\nGeneral:\nComplete name:\nPokemon.S17E08.Grooming.Furfrou.HDTD.XViD-Insane098.avi\nFormat                                   : AVI\nFormat/Info                              : Audio Video Interleave\nFile size                                : 167 MiB\nDuration                                 : 21mn 19s\nOverall bit rate                         : 1 093 Kbps\nWriting application                      : Lavf54.2.100\n\nVideo:\nID                                       : 0\nFormat                                   : MPEG-4 Visual\nFormat profile                           : Advanced Simple@L5\nFormat settings, BVOP                    : 2\nFormat settings, QPel                    : No\nFormat settings, GMC                     : No warppoints\nFormat settings, Matrix                  : Default (H.263)\nMuxing mode                              : Packed bitstream\nCodec ID                                 : XVID\nCodec ID/Hint                            : XviD\nDuration                                 : 21mn 19s\nBit rate                                 : 951 Kbps\nWidth                                    : 720 pixels\nHeight                                   : 404 pixels\nDisplay aspect ratio                     : 16:9\nFrame rate                               : 29.970 fps\nColor space                              : YUV\nChroma subsampling                       : 4:2:0\nBit depth                                : 8 bits\nScan type                                : Progressive\nCompression mode                         : Lossy\nBits/(Pixel*Frame)                       : 0.109\nStream size                              : 145 MiB (87%)\nWriting library                          : XviD 1.2.1 (UTC 2008-12-04)\n\nAudio:\nID                                       : 1\nFormat                                   : MPEG Audio\nFormat version                           : Version 1\nFormat profile                           : Layer 3\nMode                                     : Joint stereo\nMode extension                           : MS Stereo\nCodec ID                                 : 55\nCodec ID/Hint                            : MP3\nDuration                                 : 21mn 19s\nBit rate mode                            : Constant\nBit rate                                 : 128 Kbps\nChannel(s)                               : 2 channels\nSampling rate                            : 48.0 KHz\nCompression mode                         : Lossy\nStream size                              : 19.5 MiB (12%)\nAlignment                                : Aligned on interleaves\nInterleave, duration                     : 24 ms (0.72 video frame)\nWriting library                          : LAME3.98.4","torrent":{"xt":"urn:btih:e3b866eaff36f70cae3a3e55ae61440f036da097","amp;dn":"Pokemon+S17E08+Grooming+Furfrou+HDTD+XViD-Insane098","amp;tr":["udp%3A%2F%2Ftracker.openbittorrent.com%3A80","udp%3A%2F%2Fopen.demonii.com%3A1337","udp%3A%2F%2Ftracker.coppersurfer.tk%3A6969","udp%3A%2F%2Fexodus.desync.com%3A6969"],"infoHash":"e3b866eaff36f70cae3a3e55ae61440f036da097","infoHashBuffer":{"type":"Buffer","data":[227,184,102,234,255,54,247,12,174,58,62,85,174,97,68,15,3,109,160,151]},"announce":[],"urlList":[]}}